<svg xmlns="http://www.w3.org/2000/svg"
     xmlns:xlink="http://www.w3.org/1999/xlink"
>
<defs>
<symbol id="tile_back" viewBox="0 0 160 160">
  <rect x="0" y="0" rx="8" ry="8" width="160" height="160" style="fill:black" />
</symbol>

<symbol id="circle_tile" viewBox="0 0 100 100">
  <use xlink:href="tiles.svg#tile_back" x="0" y="0" width="100" height="100" />
  <circle cx="50" cy="50" r="42" style="inherit"/>  
</symbol>

<symbol id="x" style="inherit" viewBox="-17 -17 34 34">
  <polygon fill="inherit" points="-7 0, -17 -17, 0 -7, 17 -17, 7 0, 17 17, 0 7, -17 17" />
</symbol>
<symbol id="x_tile" viewBox="0 0 1000 1000">
  <use xlink:href="tiles.svg#tile_back" x="0" y="0" width="1000" height="1000" />
  <use xlink:href="tiles.svg#x" x="39" y="39" width="922" height="922" />
</symbol>

<symbol id="diamond_tile" viewBox="0 0 992 992">
  <use xlink:href="tiles.svg#tile_back" x="0" y="0" width="992" height="992" />
  <g transform="rotate(45 496 496)">
    <rect x="171" y="171" rx="3" ry="3" width="650" height="650" style="inherit" />
  </g>
</symbol>

<symbol id="square_tile" viewBox="0 0 100 100">
  <use xlink:href="tiles.svg#tile_back" x="0" y="0" width="100" height="100" />
  <rect x="17.5" y="17.5" width="65" height="65" style="inherit" />
</symbol>

<symbol id="star" style="inherit" viewBox="-1 -1 2 2">
  <polygon fill="inherit" points="
1.0 0.0,
0.36955181300451473 0.15307337294603593,
0.7071067811865476 0.7071067811865475,
0.15307337294603596 0.36955181300451473,
6.123233995736766e-17 1.0,
-0.1530733729460359 0.36955181300451473,
-0.7071067811865475 0.7071067811865476,
-0.36955181300451473 0.15307337294603596,
-1.0 1.2246467991473532e-16,
-0.3695518130045148 -0.15307337294603587,
-0.7071067811865477 -0.7071067811865475,
-0.15307337294603615 -0.3695518130045146,
-1.8369701987210297e-16 -1.0,
0.153073372946036 -0.3695518130045147,
0.7071067811865474 -0.7071067811865477,
0.3695518130045146 -0.15307337294603618
" />
</symbol>
<symbol id="star_tile" viewBox="0 0 1000 1000">
  <use xlink:href="tiles.svg#tile_back" x="0" y="0" width="1000" height="1000" />
  <use xlink:href="tiles.svg#star" x="39" y="39" width="922" height="922" />
</symbol>

<symbol id="clover" style="inherit" viewBox="0 0 30.4 30.4">
  <rect x="9.2" y="9.2" rx="5" ry="5" width="12" height="12" />
  <rect x="9.2" y="0" rx="5" ry="5" width="12" height="12" />
  <rect x="9.2" y="18.4" rx="5" ry="5" width="12" height="12" />
  <rect x="0" y="9.2" rx="5" ry="5" width="12" height="12" />
  <rect x="18.4" y="9.2" rx="5" ry="5" width="12" height="12" />
</symbol>
<symbol id="clover_tile" viewBox="0 0 124 124">
  <use xlink:href="tiles.svg#tile_back" x="0" y="0" width="124" height="124" />
  <use xlink:href="tiles.svg#clover" x="6" y="6" width="112" height="112" />
</symbol>

</defs>
</svg>
